<svg height="300pt" preserveAspectRatio="xMidYMid meet" viewBox="0 0 300 300" width="300pt" xmlns="http://www.w3.org/2000/svg"><g transform="matrix(.1 0 0 -.1 0 300)"><path d="m0 1500v-1500h1500 1500v1500 1500h-1500-1500zm1802 834c100-36 266-95 368-131 102-35 191-70 197-76 7-7 47-146 88-310l76-299-82-136c-45-76-91-149-101-164-10-14-101-85-203-157s-185-133-185-135 36-71 80-154c44-82 80-154 80-161s-31-11-98-11h-98l-159 126c-200 157-205 162-205 191 0 23-1 23-46-12-26-19-50-35-54-35-3 0-87 70-185 155l-180 155h-197-197l-142 183c-78 100-146 187-150 193-5 5 6 88 24 182l33 172 144 145c80 80 148 145 152 145 3 0 75 32 160 72l153 72 260 27c143 15 265 27 272 28 6 1 94-29 195-65z"/><path d="m1366 2283-239-25-146-68c-97-45-159-81-186-106l-40-39 250-2c235-3 251-4 266-23 16-19 18-18 53 35l36 54 167 4c93 3 185 8 206 12 29 6 42 3 57-10 27-24 27-86 0-110-22-20-74-23-95-5-8 7-62 10-151 8l-138-3-35-49-35-49 30-56 31-56h213 214l39 68 39 67h219c247 0 230-7 204 84l-15 52-348 122c-191 67-349 122-352 121s-112-13-244-26z"/><path d="m586 1887c-20-24-39-58-42-75l-6-32h281 281l72-125 73-124 275-3 274-3 34-58 34-57 241 2 240 3 39 63c29 47 35 64 24 68-29 11-291-2-323-16-30-13-35-12-60 6-22 17-28 29-28 59s6 42 28 59c25 18 30 19 60 6 21-9 79-15 170-18 149-3 147-4 127 54-5 16-14 48-20 72l-11 42h-207-207l-38-70-38-70h-264c-199 0-267 3-276 13-6 6-41 64-78 127l-66 115-277 3-276 2z"/><path d="m520 1661c-22-43-11-73 61-168 39-51 75-91 79-88 4 2 24 29 45 60 38 55 38 55 91 55 29 0 56 5 59 10 3 6 21 10 40 10 45 0 79-41 71-85-9-42-33-58-81-51-88 13-86 14-123-38-57-78-52-80 180-84l194-2 159-140c88-77 164-140 170-140 5 0 51 32 100 70l90 70 5-106 5-105 140-109c77-59 141-107 143-105s-24 55-58 119-60 120-58 125 95 75 208 155c113 79 214 154 224 165l19 21h-241-241l-31 55-31 55h-180c-98 0-179-3-179-7 0-5 9-23 20-40 17-29 25-33 64-33 25 0 48 5 51 10 3 6 22 10 41 10 67 0 97-69 53-124-23-30-38-32-94-11-22 8-66 14-97 15h-58l-44 78c-56 97-69 112-104 112-25 0-34 11-87 103-32 56-67 114-77 130l-19 27h-249c-236 0-250-1-260-19z"/></g></svg>